<?xml version="1.0" encoding="UTF-8" standalone="no"?>
<!-- Created with Inkscape (http://www.inkscape.org/) -->

<svg
   width="324.5293"
   height="324.53131"
   viewBox="0 0 324.5293 324.53131"
   version="1.1"
   id="svg1"
   xmlns="http://www.w3.org/2000/svg"
   xmlns:svg="http://www.w3.org/2000/svg">
  <defs
     id="defs1" />
  <g
     id="layer3"
     style="display:inline"
     transform="translate(-2534.5212,1312.3291)">
    <path
       id="path5"
       style="opacity:1;fill:#f0ece5;fill-opacity:1;stroke-width:0.77651;stroke-dasharray:none"
       d="m 2696.7869,-1312.3291 a 162.26527,162.26527 0 0 0 -162.2656,162.2656 162.26527,162.26527 0 0 0 28.9941,92.0489 c 1.829,-8.9507 3.9202,-16.2969 5.8692,-19.4532 5.5037,-8.9131 32.7001,-13.4963 53.7011,-18.8789 36.9723,-9.476 30.7399,10.0506 34.2891,15.916 1.4685,4.7435 3.123,5.5254 3.123,5.5254 11.9096,-3.9012 15.8426,2.0254 16.1758,20.9004 0.2806,15.8934 -32.0644,36.5782 -32.0644,36.5782 0.9474,3.0585 1.7978,12.8506 6.1797,22.95114 a 162.26527,162.26527 0 0 0 45.998,6.67774 162.26527,162.26527 0 0 0 34.5938,-4.1543 c 7.8968,-14.07198 10.0781,-29.01168 10.0781,-29.01168 -3.5533,-20.4732 -13.1074,-23.961 -13.1074,-23.961 -45.4503,-27.7195 -40.8188,-95.8495 -30.6524,-99.3105 13.6969,-4.6631 27.0498,-23.7939 26.5742,-26.3614 -0.4756,-2.5674 -14.0026,-16.4122 -18.291,-25.8027 -4.2884,-9.3905 13.3067,-27.9981 13.3067,-27.9981 -3.0654,-1.7116 -30.6099,-32.363 -28.8887,-36.5976 1.6172,-3.979 24.166,-3.2617 24.166,-3.2617 -3.7849,-9.3757 -79.1906,-35.6864 -50.2871,-42.7442 28.9035,-7.0577 78.2285,41.7129 78.2285,41.7129 3.3515,-0.6713 25.0469,3.8086 25.0469,3.8086 0.07,-4.9866 -21.6685,-28.5913 -33.041,-46.3672 a 162.26527,162.26527 0 0 0 -37.7266,-4.4824 z m 80.4258,21.3887 c 13.3225,21.6259 22.2656,44.5957 22.2656,44.5957 7.057,4.2229 28.5855,37.1495 32.8242,49.6914 2.6755,7.9164 15.3175,34.7974 25.9903,57.207 a 162.26527,162.26527 0 0 0 0.7578,-10.6172 162.26527,162.26527 0 0 0 -81.8379,-140.8769 z" />
  </g>
</svg>
